<svg width="794" height="794" viewBox="0 0 794 794" fill="none" xmlns="http://www.w3.org/2000/svg">
<path d="M516.41 548.169C520.812 552.571 520.828 559.729 516.24 563.937C480.91 596.342 437.278 618.449 390.095 627.725C339.22 637.726 286.518 632.357 238.704 612.302C190.891 592.246 150.129 558.412 121.613 515.108C93.096 471.805 78.1149 420.993 78.5779 369.146C79.0409 317.298 94.927 266.762 124.212 223.975C153.498 181.188 194.857 148.087 243.021 128.888C291.186 109.69 343.974 105.263 394.663 116.172C441.673 126.289 484.903 149.171 519.649 182.202C524.161 186.491 524.018 193.648 519.537 197.971L456.455 258.839C451.975 263.162 444.865 262.999 440.22 258.854C420.766 241.494 397.092 229.424 371.477 223.911C342.179 217.606 311.667 220.164 283.828 231.261C255.989 242.358 232.083 261.49 215.156 286.221C198.229 310.952 189.047 340.162 188.779 370.13C188.512 400.098 197.171 429.467 213.654 454.496C230.136 479.526 253.696 499.082 281.333 510.674C308.969 522.266 339.43 525.37 368.836 519.589C394.546 514.534 418.431 502.889 438.192 485.879C442.911 481.817 450.022 481.781 454.425 486.184L516.41 548.169Z" fill="url(#paint0_linear_3_7369)"/>
<path d="M549.276 679.838C549.251 689.868 537.124 694.874 530.032 687.782L450.361 608.111C448.194 605.944 447.003 602.987 447.061 599.923L449.052 496.478C449.175 490.083 443.959 484.867 437.564 484.99L334.12 486.981C331.055 487.04 328.099 485.849 325.932 483.681L246.518 404.268C239.426 397.176 244.432 385.048 254.461 385.024L538.673 384.326C544.92 384.31 549.989 389.379 549.973 395.626L549.276 679.838Z" fill="url(#paint1_linear_3_7369)"/>
<ellipse cx="652.167" cy="643.658" rx="79.8685" ry="78.6584" fill="url(#paint2_linear_3_7369)"/>
<mask id="mask0_3_7369" style="mask-type:alpha" maskUnits="userSpaceOnUse" x="78" y="110" width="655" height="613">
<path d="M516.41 548.169C520.812 552.571 520.828 559.729 516.24 563.937C480.91 596.342 437.278 618.449 390.095 627.725C339.22 637.726 286.518 632.357 238.704 612.302C190.891 592.246 150.129 558.412 121.613 515.108C93.096 471.805 78.1149 420.993 78.5779 369.146C79.0409 317.298 94.927 266.762 124.212 223.975C153.498 181.188 194.857 148.087 243.021 128.888C291.186 109.69 343.974 105.263 394.663 116.172C441.673 126.289 484.903 149.171 519.649 182.202C524.161 186.491 524.018 193.648 519.537 197.971L456.455 258.839C451.975 263.162 444.865 262.999 440.22 258.854C420.766 241.494 397.092 229.424 371.477 223.911C342.179 217.606 311.667 220.164 283.828 231.261C255.989 242.358 232.083 261.49 215.156 286.221C198.229 310.952 189.047 340.162 188.779 370.13C188.512 400.098 197.171 429.467 213.654 454.496C230.136 479.526 253.696 499.082 281.333 510.674C308.969 522.266 339.43 525.37 368.836 519.589C394.546 514.534 418.431 502.889 438.192 485.879C442.911 481.817 450.022 481.781 454.425 486.184L516.41 548.169Z" fill="black"/>
<path d="M549.275 679.837C549.251 689.867 537.124 694.873 530.032 687.781L450.361 608.11C448.194 605.943 447.002 602.986 447.061 599.922L449.052 496.478C449.175 490.084 443.959 484.868 437.564 484.991L334.12 486.981C331.056 487.04 328.1 485.849 325.932 483.681L246.519 404.267C239.427 397.175 244.432 385.048 254.462 385.024L538.673 384.326C544.92 384.311 549.988 389.379 549.973 395.626L549.275 679.837Z" fill="black"/>
<ellipse cx="652.167" cy="643.658" rx="79.8685" ry="78.6584" fill="black"/>
</mask>
<g mask="url(#mask0_3_7369)">
<path d="M890.7 -104.055H-101.3V887.945L890.7 -104.055Z" fill="white" fill-opacity="0.15"/>
</g>
<defs>
<linearGradient id="paint0_linear_3_7369" x1="339.719" y1="110.326" x2="339.719" y2="632.629" gradientUnits="userSpaceOnUse">
<stop stop-color="white"/>
<stop offset="1" stop-color="#0A66C2"/>
</linearGradient>
<linearGradient id="paint1_linear_3_7369" x1="546.672" y1="387.628" x2="388.275" y2="546.024" gradientUnits="userSpaceOnUse">
<stop stop-color="white"/>
<stop offset="1" stop-color="#0A66C2"/>
</linearGradient>
<linearGradient id="paint2_linear_3_7369" x1="652.167" y1="564.999" x2="652.167" y2="722.316" gradientUnits="userSpaceOnUse">
<stop stop-color="white"/>
<stop offset="1" stop-color="#0A66C2"/>
</linearGradient>
</defs>
</svg>
